<?xml version="1.0" encoding="utf-8"?>
<svg width="12" height="12" viewBox="0 0 12 12" xmlns="http://www.w3.org/2000/svg">
    <g fill="none" fill-rule="evenodd">
        <circle cx="4" cy="6" r="4" fill-opacity=".7" style="fill: rgb(217, 163, 67);"/>
        <path fill="#DB5860" d="M10,9 L12,9 L9.5,12 L7,9 L9,9 L9,0 L10,0 L10,9 Z" transform="matrix(1 0 0 -1 0 12)"/>
        <path fill-rule="evenodd" clip-rule="evenodd"
              d="M 2.912 6.028 L 2.912 4.503 L 4.084 4.503 C 4.668 4.503 5.199 4.742 5.199 5.231 C 5.199 5.72 4.654 6.028 4.091 6.028 L 2.912 6.028 Z M 4.711 6.66 C 5.333 6.478 5.962 6.111 5.962 5.199 C 5.962 4.287 5.16 3.741 4.148 3.741 L 2.149 3.741 L 2.149 8.316 L 2.912 8.316 L 2.912 6.791 L 3.293 6.791 L 3.924 6.791 C 3.924 6.791 4.25 6.774 4.388 6.75 C 4.514 6.728 4.711 6.66 4.711 6.66 Z"
              fill="#231F20" fill-opacity="0.7" style=""/>
    </g>
</svg>