<?xml version="1.0" encoding="utf-8"?>
<svg width="12" height="12" viewBox="0 0 12 12" xmlns="http://www.w3.org/2000/svg">
  <g fill="none" fill-rule="evenodd">
    <circle cx="4" cy="6" r="4" fill-opacity=".7" style="fill: rgb(217, 163, 67);"/>
    <path fill="#231F20" fill-opacity=".7" d="M 3.689 8.284 C 2.994 8.284 2.338 8.044 1.793 7.557 L 2.273 6.985 C 2.709 7.362 3.15 7.576 3.708 7.576 C 4.202 7.576 4.513 7.343 4.513 7.005 L 4.513 6.992 C 4.513 6.667 4.332 6.492 3.488 6.297 C 2.52 6.063 1.975 5.777 1.975 4.94 L 1.975 4.927 C 1.975 4.148 2.624 3.609 3.527 3.609 C 4.189 3.609 4.715 3.81 5.176 4.18 L 4.747 4.784 C 4.338 4.479 3.929 4.316 3.513 4.316 C 3.046 4.316 2.773 4.557 2.773 4.855 L 2.773 4.869 C 2.773 5.219 2.981 5.375 3.858 5.582 C 4.819 5.816 5.312 6.161 5.312 6.914 L 5.312 6.927 C 5.312 7.778 4.643 8.284 3.689 8.284 Z" style=""/>
  </g>
  <path d="M 9.998 8.997 L 11.998 8.997 L 9.498 11.995 L 6.998 8.997 L 8.998 8.997 L 8.998 0.005 L 9.998 0.005 L 9.998 8.997 Z" style="fill: rgb(175, 177, 179);"/>
</svg>